<?xml version="1.0" encoding="utf-8"?>
<!-- Generator: Adobe Illustrator 26.0.1, SVG Export Plug-In . SVG Version: 6.00 Build 0)  -->
<svg version="1.1" id="Layer_1" xmlns="http://www.w3.org/2000/svg" xmlns:xlink="http://www.w3.org/1999/xlink" x="0px" y="0px"
	 viewBox="0 0 302.97 36.01" style="enable-background:new 0 0 302.97 36.01;" xml:space="preserve">
<style type="text/css">
	.st0{fill:#DDE21E;}
</style>
<g>
	<path d="M67.34,28.22v4.25H56.21v-4.25H67.34z M57.81,6.88v25.59h-5.15V6.88H57.81z M65.84,17.25v4.13h-9.63v-4.13H65.84z
		 M67.3,6.88v4.27H56.21V6.88H67.3z M75.26,5.47v27h-4.94v-27H75.26z M86.83,32.83c-1.3,0-2.46-0.2-3.46-0.6
		c-1-0.4-1.84-0.97-2.53-1.72c-0.69-0.76-1.22-1.68-1.58-2.76c-0.36-1.08-0.54-2.31-0.54-3.69v-1.56c0-1.55,0.18-2.9,0.53-4.06
		c0.35-1.17,0.85-2.16,1.49-2.95c0.64-0.8,1.44-1.39,2.37-1.78c0.95-0.4,2.02-0.6,3.22-0.6c1.2,0,2.24,0.2,3.15,0.6
		c0.91,0.39,1.67,0.97,2.27,1.76c0.6,0.77,1.05,1.73,1.35,2.88c0.3,1.15,0.46,2.48,0.46,4.01v2.25H80.8v-3.46h7.91V20.7
		c0-0.77-0.08-1.42-0.25-1.93c-0.16-0.53-0.42-0.92-0.77-1.18c-0.35-0.26-0.82-0.39-1.41-0.39c-0.49,0-0.91,0.1-1.25,0.3
		c-0.34,0.2-0.61,0.51-0.81,0.93c-0.2,0.42-0.35,0.97-0.44,1.65c-0.09,0.67-0.14,1.47-0.14,2.41v1.56c0,0.88,0.08,1.62,0.23,2.21
		c0.15,0.59,0.38,1.07,0.67,1.44c0.3,0.36,0.67,0.63,1.11,0.79c0.43,0.15,0.94,0.23,1.51,0.23c0.87,0,1.65-0.15,2.34-0.46
		c0.7-0.32,1.3-0.74,1.79-1.28l1.97,2.99c-0.34,0.45-0.81,0.89-1.41,1.34c-0.6,0.45-1.31,0.81-2.14,1.09
		C88.88,32.68,87.92,32.83,86.83,32.83z M103.27,28.73c0.46,0,0.85-0.09,1.18-0.28c0.34-0.19,0.6-0.49,0.77-0.91
		c0.18-0.42,0.27-0.97,0.28-1.63h4.62c0,1.43-0.31,2.67-0.91,3.71c-0.6,1.03-1.41,1.83-2.43,2.39c-1.01,0.55-2.15,0.83-3.43,0.83
		c-1.28,0-2.39-0.21-3.34-0.62c-0.95-0.41-1.73-1.01-2.36-1.79c-0.61-0.79-1.07-1.74-1.39-2.87c-0.3-1.14-0.46-2.44-0.46-3.9v-1.39
		c0-1.44,0.15-2.73,0.46-3.87c0.32-1.14,0.78-2.1,1.39-2.88c0.62-0.79,1.4-1.38,2.34-1.79c0.95-0.41,2.06-0.62,3.34-0.62
		c1.37,0,2.56,0.29,3.57,0.86c1.01,0.56,1.79,1.39,2.36,2.5c0.57,1.1,0.86,2.46,0.86,4.08h-4.62c-0.01-0.73-0.1-1.33-0.26-1.81
		c-0.15-0.49-0.39-0.87-0.72-1.12c-0.32-0.27-0.74-0.4-1.27-0.4c-0.55,0-1,0.12-1.34,0.35c-0.33,0.22-0.58,0.55-0.76,0.98
		c-0.16,0.42-0.28,0.95-0.33,1.58c-0.06,0.63-0.09,1.35-0.09,2.14v1.39c0,0.86,0.02,1.6,0.07,2.23c0.06,0.62,0.17,1.15,0.33,1.58
		c0.18,0.42,0.43,0.74,0.76,0.95C102.23,28.62,102.69,28.73,103.27,28.73z M121.25,13.45v3.71h-9.7v-3.71H121.25z M113.78,8.76h4.9
		v17.91c0,0.53,0.05,0.93,0.16,1.21c0.11,0.28,0.26,0.48,0.47,0.6c0.22,0.11,0.52,0.16,0.88,0.16c0.25,0,0.47-0.01,0.69-0.04
		c0.21-0.04,0.37-0.07,0.47-0.11v3.85c-0.39,0.15-0.8,0.27-1.23,0.35c-0.42,0.08-0.93,0.12-1.51,0.12c-0.98,0-1.84-0.19-2.57-0.56
		c-0.71-0.38-1.27-0.97-1.67-1.79c-0.4-0.83-0.6-1.92-0.6-3.27V8.76z M128.91,17.69v14.78h-4.92V13.45h4.64L128.91,17.69z
		 M133.39,13.31l-0.07,4.9c-0.22-0.05-0.49-0.08-0.81-0.11c-0.31-0.02-0.58-0.04-0.81-0.04c-0.55,0-1.02,0.09-1.41,0.26
		c-0.39,0.16-0.71,0.42-0.97,0.76c-0.25,0.33-0.43,0.74-0.56,1.23c-0.13,0.49-0.21,1.05-0.23,1.67l-0.93-0.35
		c0-1.24,0.09-2.38,0.28-3.41c0.2-1.04,0.49-1.95,0.88-2.71c0.39-0.77,0.85-1.37,1.39-1.79c0.55-0.42,1.17-0.63,1.86-0.63
		c0.24,0,0.48,0.02,0.74,0.07C133.03,13.21,133.24,13.26,133.39,13.31z M134.71,23.61v-1.28c0-1.49,0.18-2.81,0.53-3.96
		c0.36-1.15,0.88-2.11,1.55-2.88c0.67-0.79,1.47-1.38,2.41-1.78c0.95-0.41,2.01-0.62,3.18-0.62c1.18,0,2.24,0.21,3.18,0.62
		c0.95,0.4,1.76,0.99,2.42,1.78c0.68,0.77,1.2,1.73,1.57,2.88c0.36,1.15,0.54,2.47,0.54,3.96v1.28c0,1.48-0.18,2.79-0.54,3.94
		c-0.36,1.15-0.88,2.12-1.57,2.9c-0.67,0.79-1.47,1.38-2.41,1.78c-0.94,0.4-1.99,0.6-3.16,0.6s-2.23-0.2-3.18-0.6
		c-0.94-0.4-1.75-0.99-2.43-1.78c-0.68-0.79-1.2-1.75-1.56-2.9C134.89,26.4,134.71,25.09,134.71,23.61z M139.63,22.33v1.28
		c0,0.88,0.06,1.64,0.18,2.29c0.13,0.64,0.31,1.18,0.54,1.6c0.25,0.42,0.54,0.73,0.88,0.93c0.34,0.2,0.73,0.3,1.18,0.3
		c0.44,0,0.84-0.1,1.19-0.3c0.35-0.2,0.64-0.51,0.86-0.93c0.23-0.42,0.4-0.96,0.51-1.6c0.12-0.64,0.18-1.41,0.18-2.29v-1.28
		c0-0.86-0.06-1.61-0.19-2.25c-0.13-0.66-0.31-1.19-0.54-1.6c-0.23-0.42-0.53-0.74-0.88-0.95c-0.34-0.22-0.73-0.33-1.16-0.33
		s-0.82,0.11-1.16,0.33c-0.33,0.21-0.61,0.53-0.86,0.95c-0.23,0.41-0.42,0.94-0.54,1.6C139.69,20.73,139.63,21.48,139.63,22.33z
		 M153.47,6.88h8.21c1.71,0,3.17,0.29,4.38,0.88c1.21,0.59,2.13,1.45,2.78,2.6c0.65,1.15,0.97,2.57,0.97,4.25
		c0,1.38-0.19,2.57-0.56,3.55c-0.38,0.97-0.91,1.79-1.6,2.44c-0.69,0.64-1.52,1.16-2.48,1.55l-1.56,0.93h-6.66l-0.02-4.27h4.62
		c0.7,0,1.28-0.15,1.74-0.46c0.47-0.32,0.82-0.76,1.04-1.32c0.24-0.57,0.35-1.24,0.35-2c0-0.81-0.1-1.5-0.32-2.07
		c-0.2-0.59-0.52-1.03-0.97-1.34c-0.43-0.32-1-0.47-1.71-0.47h-3.06v21.32h-5.15V6.88z M165.09,32.47l-4.69-11.41l5.4-0.02
		l4.8,11.18v0.25H165.09z M180.8,32.83c-1.3,0-2.45-0.2-3.46-0.6c-1-0.4-1.84-0.97-2.53-1.72c-0.69-0.76-1.22-1.68-1.58-2.76
		c-0.36-1.08-0.54-2.31-0.54-3.69v-1.56c0-1.55,0.17-2.9,0.53-4.06c0.35-1.17,0.85-2.16,1.49-2.95c0.65-0.8,1.44-1.39,2.37-1.78
		c0.95-0.4,2.02-0.6,3.22-0.6c1.2,0,2.24,0.2,3.15,0.6c0.92,0.39,1.67,0.97,2.27,1.76c0.6,0.77,1.05,1.73,1.35,2.88
		c0.3,1.15,0.46,2.48,0.46,4.01v2.25h-12.75v-3.46h7.91V20.7c0-0.77-0.08-1.42-0.25-1.93c-0.17-0.53-0.42-0.92-0.77-1.18
		c-0.35-0.26-0.82-0.39-1.41-0.39c-0.49,0-0.91,0.1-1.25,0.3c-0.34,0.2-0.61,0.51-0.81,0.93c-0.2,0.42-0.35,0.97-0.44,1.65
		c-0.09,0.67-0.14,1.47-0.14,2.41v1.56c0,0.88,0.08,1.62,0.23,2.21c0.15,0.59,0.38,1.07,0.67,1.44c0.3,0.36,0.67,0.63,1.11,0.79
		c0.43,0.15,0.94,0.23,1.51,0.23c0.87,0,1.65-0.15,2.34-0.46c0.7-0.32,1.3-0.74,1.79-1.28l1.97,2.99c-0.34,0.45-0.81,0.89-1.41,1.34
		c-0.6,0.45-1.31,0.81-2.14,1.09C182.85,32.68,181.89,32.83,180.8,32.83z M195.73,28.68l3.06-15.22h5.13l-5.22,19.02h-3.08
		L195.73,28.68z M193.92,13.45l3.11,15.24l0.05,3.78h-3.09l-5.22-19.02H193.92z M211.46,13.45v19.02h-4.94V13.45H211.46z
		 M206.29,8.53c0-0.76,0.24-1.39,0.72-1.88c0.49-0.5,1.15-0.76,1.97-0.76c0.83,0,1.49,0.25,1.97,0.76c0.48,0.49,0.72,1.12,0.72,1.88
		c0,0.75-0.25,1.38-0.74,1.88c-0.48,0.49-1.12,0.74-1.93,0.74c-0.83,0-1.49-0.25-1.99-0.74C206.53,9.91,206.29,9.28,206.29,8.53z
		 M223.02,32.83c-1.3,0-2.46-0.2-3.46-0.6c-1-0.4-1.84-0.97-2.53-1.72c-0.69-0.76-1.22-1.68-1.58-2.76
		c-0.36-1.08-0.54-2.31-0.54-3.69v-1.56c0-1.55,0.18-2.9,0.53-4.06c0.35-1.17,0.85-2.16,1.49-2.95c0.64-0.8,1.43-1.39,2.37-1.78
		c0.95-0.4,2.02-0.6,3.22-0.6c1.19,0,2.24,0.2,3.15,0.6c0.91,0.39,1.67,0.97,2.27,1.76c0.6,0.77,1.05,1.73,1.35,2.88
		c0.3,1.15,0.46,2.48,0.46,4.01v2.25H217v-3.46h7.91V20.7c0-0.77-0.08-1.42-0.25-1.93c-0.16-0.53-0.42-0.92-0.77-1.18
		c-0.35-0.26-0.82-0.39-1.41-0.39c-0.49,0-0.91,0.1-1.25,0.3c-0.34,0.2-0.61,0.51-0.81,0.93c-0.2,0.42-0.35,0.97-0.44,1.65
		c-0.09,0.67-0.14,1.47-0.14,2.41v1.56c0,0.88,0.08,1.62,0.23,2.21c0.15,0.59,0.38,1.07,0.67,1.44c0.3,0.36,0.67,0.63,1.11,0.79
		c0.43,0.15,0.94,0.23,1.51,0.23c0.87,0,1.65-0.15,2.34-0.46c0.7-0.32,1.3-0.74,1.79-1.28l1.97,2.99c-0.34,0.45-0.81,0.89-1.41,1.34
		c-0.6,0.45-1.31,0.81-2.14,1.09C225.08,32.68,224.11,32.83,223.02,32.83z M237.05,27.46l3.32-14.01h3.09l-0.76,5.7l-3.27,13.32
		h-2.58L237.05,27.46z M236.1,13.45l2.27,13.97l-0.02,5.04h-3.02l-3.96-19.02H236.1z M245.96,27.2l2.2-13.75h4.76l-3.97,19.02h-3.02
		L245.96,27.2z M243.89,13.45l3.32,13.9l0.23,5.12h-2.58l-3.27-13.29l-0.74-5.73H243.89z M264.91,11.45l-5.5,21.02h-5.43l8-25.59
		h3.39L264.91,11.45z M269.26,32.47l-5.54-21.02l-0.51-4.57h3.45l8.07,25.59H269.26z M269.45,22.93v4.27H257.9v-4.27H269.45z
		 M285.88,23.46h-5.24v-4.27h5.24c0.73,0,1.32-0.16,1.77-0.49c0.47-0.33,0.81-0.78,1.02-1.35c0.21-0.59,0.32-1.24,0.32-1.97
		c0-0.74-0.11-1.42-0.33-2.06c-0.21-0.64-0.55-1.17-1-1.56c-0.44-0.4-1.04-0.6-1.77-0.6h-3.59v21.32h-5.13V6.88h8.72
		c1.72,0,3.21,0.36,4.45,1.09c1.24,0.73,2.19,1.73,2.85,3.01c0.67,1.27,1,2.72,1,4.36c0,1.65-0.33,3.09-1,4.31
		c-0.66,1.21-1.61,2.14-2.85,2.81C289.09,23.12,287.61,23.46,285.88,23.46z M302.97,6.88v25.59h-5.12V6.88H302.97z"/>
	<path class="st0" d="M16.79,1.24l-4.57,9.35L1.89,12.07c-1.83,0.28-2.53,2.53-1.2,3.87l7.38,7.24l-1.76,10.2
		c-0.28,1.83,1.69,3.23,3.3,2.39l9.21-4.85l9.14,4.85c1.62,0.84,3.59-0.56,3.3-2.39l-1.76-10.2l7.38-7.24
		c1.34-1.34,0.63-3.59-1.2-3.87l-10.27-1.48L20.8,1.24C20.03-0.38,17.64-0.45,16.79,1.24z"/>
</g>
</svg>
